<svg version="1.1" viewBox="0.0 0.0 1023.0 362.0" fill="none" stroke="none" stroke-linecap="square" stroke-miterlimit="10" width="1023" height="362" xmlns:xlink="http://www.w3.org/1999/xlink" xmlns="http://www.w3.org/2000/svg"><path fill="#ffffff" d="M0 0L1023.0 0L1023.0 362.0L0 362.0L0 0Z" fill-rule="nonzero"/><path stroke="#333333" stroke-width="1.0" stroke-linecap="butt" d="M84.5 293.5L1004.5 293.5" fill-rule="nonzero"/><path stroke="#cccccc" stroke-width="1.0" stroke-linecap="butt" d="M84.5 252.5L1004.5 252.5" fill-rule="nonzero"/><path stroke="#cccccc" stroke-width="1.0" stroke-linecap="butt" d="M84.5 211.5L1004.5 211.5" fill-rule="nonzero"/><path stroke="#cccccc" stroke-width="1.0" stroke-linecap="butt" d="M84.5 170.5L1004.5 170.5" fill-rule="nonzero"/><path stroke="#cccccc" stroke-width="1.0" stroke-linecap="butt" d="M84.5 129.5L1004.5 129.5" fill-rule="nonzero"/><clipPath id="id_0"><path d="M84.1 129.73334L1004.9 129.73334L1004.9 293.9L84.1 293.9L84.1 129.73334Z" clip-rule="nonzero"/></clipPath><path stroke="#000000" stroke-width="2.0" stroke-linecap="butt" stroke-opacity="0.0" clip-path="url(#id_0)" d="M199.0 294.0L145.0 294.0L145.0 162.0C145.0 160.89543 145.89543 160.0 147.0 160.0L197.0 160.0C198.10457 160.0 199.0 160.89543 199.0 162.0Z" fill-rule="nonzero"/><path fill="#4285f4" clip-path="url(#id_0)" d="M199.0 294.0L145.0 294.0L145.0 162.0C145.0 160.89543 145.89543 160.0 147.0 160.0L197.0 160.0C198.10457 160.0 199.0 160.89543 199.0 162.0Z" fill-rule="nonzero"/><path stroke="#000000" stroke-width="2.0" stroke-linecap="butt" stroke-opacity="0.0" clip-path="url(#id_0)" d="M371.0 294.0L317.0 294.0L317.0 192.0C317.0 190.89543 317.89542 190.0 319.0 190.0L369.0 190.0C370.10458 190.0 371.0 190.89543 371.0 192.0Z" fill-rule="nonzero"/><path fill="#4285f4" clip-path="url(#id_0)" d="M371.0 294.0L317.0 294.0L317.0 192.0C317.0 190.89543 317.89542 190.0 319.0 190.0L369.0 190.0C370.10458 190.0 371.0 190.89543 371.0 192.0Z" fill-rule="nonzero"/><path stroke="#000000" stroke-width="2.0" stroke-linecap="butt" stroke-opacity="0.0" clip-path="url(#id_0)" d="M544.0 294.0L490.0 294.0L490.0 192.0C490.0 190.89543 490.89542 190.0 492.0 190.0L542.0 190.0C543.10455 190.0 544.0 190.89543 544.0 192.0Z" fill-rule="nonzero"/><path fill="#4285f4" clip-path="url(#id_0)" d="M544.0 294.0L490.0 294.0L490.0 192.0C490.0 190.89543 490.89542 190.0 492.0 190.0L542.0 190.0C543.10455 190.0 544.0 190.89543 544.0 192.0Z" fill-rule="nonzero"/><path stroke="#000000" stroke-width="2.0" stroke-linecap="butt" stroke-opacity="0.0" clip-path="url(#id_0)" d="M716.0 294.0L662.0 294.0L662.0 207.0C662.0 205.89543 662.89545 205.0 664.0 205.0L714.0 205.0C715.10455 205.0 716.0 205.89543 716.0 207.0Z" fill-rule="nonzero"/><path fill="#4285f4" clip-path="url(#id_0)" d="M716.0 294.0L662.0 294.0L662.0 207.0C662.0 205.89543 662.89545 205.0 664.0 205.0L714.0 205.0C715.10455 205.0 716.0 205.89543 716.0 207.0Z" fill-rule="nonzero"/><path stroke="#000000" stroke-width="2.0" stroke-linecap="butt" stroke-opacity="0.0" clip-path="url(#id_0)" d="M888.0 294.0L834.0 294.0L834.0 199.0C834.0 197.89543 834.89545 197.0 836.0 197.0L886.0 197.0C887.10455 197.0 888.0 197.89543 888.0 199.0Z" fill-rule="nonzero"/><path fill="#4285f4" clip-path="url(#id_0)" d="M888.0 294.0L834.0 294.0L834.0 199.0C834.0 197.89543 834.89545 197.0 836.0 197.0L886.0 197.0C887.10455 197.0 888.0 197.89543 888.0 199.0Z" fill-rule="nonzero"/><path stroke="#000000" stroke-width="2.0" stroke-linecap="butt" stroke-opacity="0.0" clip-path="url(#id_0)" d="M255.0 294.0L201.0 294.0L201.0 223.0C201.0 221.89543 201.89543 221.0 203.0 221.0L253.0 221.0C254.10457 221.0 255.0 221.89543 255.0 223.0Z" fill-rule="nonzero"/><path fill="#ea4335" clip-path="url(#id_0)" d="M255.0 294.0L201.0 294.0L201.0 223.0C201.0 221.89543 201.89543 221.0 203.0 221.0L253.0 221.0C254.10457 221.0 255.0 221.89543 255.0 223.0Z" fill-rule="nonzero"/><path stroke="#000000" stroke-width="2.0" stroke-linecap="butt" stroke-opacity="0.0" clip-path="url(#id_0)" d="M427.0 294.0L373.0 294.0L373.0 219.0C373.0 217.89543 373.89542 217.0 375.0 217.0L425.0 217.0C426.10458 217.0 427.0 217.89543 427.0 219.0Z" fill-rule="nonzero"/><path fill="#ea4335" clip-path="url(#id_0)" d="M427.0 294.0L373.0 294.0L373.0 219.0C373.0 217.89543 373.89542 217.0 375.0 217.0L425.0 217.0C426.10458 217.0 427.0 217.89543 427.0 219.0Z" fill-rule="nonzero"/><path stroke="#000000" stroke-width="2.0" stroke-linecap="butt" stroke-opacity="0.0" clip-path="url(#id_0)" d="M600.0 294.0L546.0 294.0L546.0 227.0C546.0 225.89543 546.89545 225.0 548.0 225.0L598.0 225.0C599.10455 225.0 600.0 225.89543 600.0 227.0Z" fill-rule="nonzero"/><path fill="#ea4335" clip-path="url(#id_0)" d="M600.0 294.0L546.0 294.0L546.0 227.0C546.0 225.89543 546.89545 225.0 548.0 225.0L598.0 225.0C599.10455 225.0 600.0 225.89543 600.0 227.0Z" fill-rule="nonzero"/><path stroke="#000000" stroke-width="2.0" stroke-linecap="butt" stroke-opacity="0.0" clip-path="url(#id_0)" d="M772.0 294.0L718.0 294.0L718.0 220.0C718.0 218.89543 718.89545 218.0 720.0 218.0L770.0 218.0C771.10455 218.0 772.0 218.89543 772.0 220.0Z" fill-rule="nonzero"/><path fill="#ea4335" clip-path="url(#id_0)" d="M772.0 294.0L718.0 294.0L718.0 220.0C718.0 218.89543 718.89545 218.0 720.0 218.0L770.0 218.0C771.10455 218.0 772.0 218.89543 772.0 220.0Z" fill-rule="nonzero"/><path stroke="#000000" stroke-width="2.0" stroke-linecap="butt" stroke-opacity="0.0" clip-path="url(#id_0)" d="M944.0 294.0L890.0 294.0L890.0 223.0C890.0 221.89543 890.89545 221.0 892.0 221.0L942.0 221.0C943.10455 221.0 944.0 221.89543 944.0 223.0Z" fill-rule="nonzero"/><path fill="#ea4335" clip-path="url(#id_0)" d="M944.0 294.0L890.0 294.0L890.0 223.0C890.0 221.89543 890.89545 221.0 892.0 221.0L942.0 221.0C943.10455 221.0 944.0 221.89543 944.0 223.0Z" fill-rule="nonzero"/><path fill="#000000" d="M60.334373 282.8375Q63.459373 282.8375 65.20937 285.05624Q67.30312 287.69687 67.30312 293.80624Q67.30312 299.9 65.19375 302.57187Q63.459373 304.75937 60.334373 304.75937Q57.19375 304.75937 55.271873 302.35312Q53.365623 299.94687 53.365623 293.75937Q53.365623 287.69687 55.475 285.04062Q57.209373 282.8375 60.334373 282.8375ZM60.334373 286.24374Q59.584373 286.24374 58.990623 286.72812Q58.4125 287.19687 58.084373 288.43124Q57.6625 290.025 57.6625 293.80624Q57.6625 297.5875 58.0375 299.00937Q58.428123 300.41562 59.00625 300.88437Q59.584373 301.35312 60.334373 301.35312Q61.084373 301.35312 61.6625 300.88437Q62.25625 300.4 62.56875 299.16562Q63.00625 297.5875 63.00625 293.80624Q63.00625 290.025 62.615623 288.61874Q62.240623 287.19687 61.6625 286.72812Q61.084373 286.24374 60.334373 286.24374Z" fill-rule="nonzero"/><path fill="#000000" d="M36.428123 257.8427L40.5375 257.4052Q40.709373 258.79584 41.56875 259.60834Q42.44375 260.42084 43.56875 260.42084Q44.85 260.42084 45.740623 259.37396Q46.646873 258.3271 46.646873 256.2177Q46.646873 254.24896 45.75625 253.26459Q44.865623 252.26459 43.44375 252.26459Q41.678123 252.26459 40.271873 253.84271L36.928123 253.35834L39.0375 242.17084L49.928123 242.17084L49.928123 246.03021L42.1625 246.03021L41.521873 249.67084Q42.896873 248.98334 44.334373 248.98334Q47.06875 248.98334 48.975 250.98334Q50.88125 252.96771 50.88125 256.1552Q50.88125 258.79584 49.334373 260.8896Q47.240623 263.7177 43.521873 263.7177Q40.553123 263.7177 38.678123 262.12396Q36.803123 260.5302 36.428123 257.8427ZM60.334373 241.79584Q63.459373 241.79584 65.20937 244.01459Q67.30312 246.65521 67.30312 252.76459Q67.30312 258.85834 65.19375 261.5302Q63.459373 263.7177 60.334373 263.7177Q57.19375 263.7177 55.271873 261.31146Q53.365623 258.9052 53.365623 252.71771Q53.365623 246.65521 55.475 243.99896Q57.209373 241.79584 60.334373 241.79584ZM60.334373 245.20209Q59.584373 245.20209 58.990623 245.68646Q58.4125 246.15521 58.084373 247.38959Q57.6625 248.98334 57.6625 252.76459Q57.6625 256.54584 58.0375 257.9677Q58.428123 259.37396 59.00625 259.8427Q59.584373 260.31146 60.334373 260.31146Q61.084373 260.31146 61.6625 259.8427Q62.25625 259.35834 62.56875 258.12396Q63.00625 256.54584 63.00625 252.76459Q63.00625 248.98334 62.615623 247.57709Q62.240623 246.15521 61.6625 245.68646Q61.084373 245.20209 60.334373 245.20209Z" fill-rule="nonzero"/><path fill="#000000" d="M29.9125 222.31667L25.7875 222.31667L25.7875 206.80104Q23.5375 208.91042 20.475 209.92604L20.475 206.19167Q22.084375 205.66042 23.975 204.19167Q25.865625 202.72292 26.56875 200.75417L29.9125 200.75417L29.9125 222.31667ZM43.334373 200.75417Q46.459373 200.75417 48.209373 202.97292Q50.303123 205.61354 50.303123 211.72292Q50.303123 217.81667 48.19375 220.48854Q46.459373 222.67604 43.334373 222.67604Q40.19375 222.67604 38.271873 220.26979Q36.365623 217.86354 36.365623 211.67604Q36.365623 205.61354 38.475 202.95729Q40.209373 200.75417 43.334373 200.75417ZM43.334373 204.16042Q42.584373 204.16042 41.990623 204.64479Q41.4125 205.11354 41.084373 206.34792Q40.6625 207.94167 40.6625 211.72292Q40.6625 215.50417 41.0375 216.92604Q41.428123 218.33229 42.00625 218.80104Q42.584373 219.26979 43.334373 219.26979Q44.084373 219.26979 44.6625 218.80104Q45.25625 218.31667 45.56875 217.08229Q46.00625 215.50417 46.00625 211.72292Q46.00625 207.94167 45.615623 206.53542Q45.240623 205.11354 44.6625 204.64479Q44.084373 204.16042 43.334373 204.16042ZM60.334373 200.75417Q63.459373 200.75417 65.20937 202.97292Q67.30312 205.61354 67.30312 211.72292Q67.30312 217.81667 65.19375 220.48854Q63.459373 222.67604 60.334373 222.67604Q57.19375 222.67604 55.271873 220.26979Q53.365623 217.86354 53.365623 211.67604Q53.365623 205.61354 55.475 202.95729Q57.209373 200.75417 60.334373 200.75417ZM60.334373 204.16042Q59.584373 204.16042 58.990623 204.64479Q58.4125 205.11354 58.084373 206.34792Q57.6625 207.94167 57.6625 211.72292Q57.6625 215.50417 58.0375 216.92604Q58.428123 218.33229 59.00625 218.80104Q59.584373 219.26979 60.334373 219.26979Q61.084373 219.26979 61.6625 218.80104Q62.25625 218.31667 62.56875 217.08229Q63.00625 215.50417 63.00625 211.72292Q63.00625 207.94167 62.615623 206.53542Q62.240623 205.11354 61.6625 204.64479Q61.084373 204.16042 60.334373 204.16042Z" fill-rule="nonzero"/><path fill="#000000" d="M29.9125 181.275L25.7875 181.275L25.7875 165.75937Q23.5375 167.86874 20.475 168.88437L20.475 165.15Q22.084375 164.61874 23.975 163.15Q25.865625 161.68124 26.56875 159.7125L29.9125 159.7125L29.9125 181.275ZM36.428123 175.75937L40.5375 175.32187Q40.709373 176.7125 41.56875 177.525Q42.44375 178.3375 43.56875 178.3375Q44.85 178.3375 45.740623 177.29062Q46.646873 176.24374 46.646873 174.13437Q46.646873 172.16562 45.75625 171.18124Q44.865623 170.18124 43.44375 170.18124Q41.678123 170.18124 40.271873 171.75937L36.928123 171.275L39.0375 160.0875L49.928123 160.0875L49.928123 163.94687L42.1625 163.94687L41.521873 167.5875Q42.896873 166.9 44.334373 166.9Q47.06875 166.9 48.975 168.9Q50.88125 170.88437 50.88125 174.07187Q50.88125 176.7125 49.334373 178.80624Q47.240623 181.63437 43.521873 181.63437Q40.553123 181.63437 38.678123 180.04062Q36.803123 178.44687 36.428123 175.75937ZM60.334373 159.7125Q63.459373 159.7125 65.20937 161.93124Q67.30312 164.57187 67.30312 170.68124Q67.30312 176.775 65.19375 179.44687Q63.459373 181.63437 60.334373 181.63437Q57.19375 181.63437 55.271873 179.22812Q53.365623 176.82187 53.365623 170.63437Q53.365623 164.57187 55.475 161.91562Q57.209373 159.7125 60.334373 159.7125ZM60.334373 163.11874Q59.584373 163.11874 58.990623 163.60312Q58.4125 164.07187 58.084373 165.30624Q57.6625 166.9 57.6625 170.68124Q57.6625 174.4625 58.0375 175.88437Q58.428123 177.29062 59.00625 177.75937Q59.584373 178.22812 60.334373 178.22812Q61.084373 178.22812 61.6625 177.75937Q62.25625 177.275 62.56875 176.04062Q63.00625 174.4625 63.00625 170.68124Q63.00625 166.9 62.615623 165.49374Q62.240623 164.07187 61.6625 163.60312Q61.084373 163.11874 60.334373 163.11874Z" fill-rule="nonzero"/><path fill="#000000" d="M33.271873 136.40521L33.271873 140.23334L18.85 140.23334Q19.084375 138.06146 20.25625 136.12396Q21.428125 134.18646 24.88125 130.96771Q27.6625 128.38959 28.303125 127.45209Q29.146875 126.18646 29.146875 124.93646Q29.146875 123.56146 28.396875 122.82709Q27.6625 122.07709 26.365625 122.07709Q25.06875 122.07709 24.303125 122.85834Q23.553125 123.63959 23.428125 125.43646L19.334375 125.03021Q19.69375 121.62396 21.63125 120.15521Q23.56875 118.67084 26.459375 118.67084Q29.646875 118.67084 31.459375 120.38959Q33.271873 122.09271 33.271873 124.63959Q33.271873 126.09271 32.75625 127.40521Q32.240623 128.71771 31.115625 130.15521Q30.365625 131.10834 28.4125 132.90521Q26.459375 134.68646 25.94375 135.28021Q25.428125 135.85834 25.1 136.40521L33.271873 136.40521ZM43.334373 118.67084Q46.459373 118.67084 48.209373 120.88959Q50.303123 123.53021 50.303123 129.63959Q50.303123 135.73334 48.19375 138.40521Q46.459373 140.59271 43.334373 140.59271Q40.19375 140.59271 38.271873 138.18646Q36.365623 135.78021 36.365623 129.59271Q36.365623 123.53021 38.475 120.87396Q40.209373 118.67084 43.334373 118.67084ZM43.334373 122.07709Q42.584373 122.07709 41.990623 122.56146Q41.4125 123.03021 41.084373 124.26459Q40.6625 125.85834 40.6625 129.63959Q40.6625 133.42084 41.0375 134.84271Q41.428123 136.24896 42.00625 136.71771Q42.584373 137.18646 43.334373 137.18646Q44.084373 137.18646 44.6625 136.71771Q45.25625 136.23334 45.56875 134.99896Q46.00625 133.42084 46.00625 129.63959Q46.00625 125.85834 45.615623 124.45209Q45.240623 123.03021 44.6625 122.56146Q44.084373 122.07709 43.334373 122.07709ZM60.334373 118.67084Q63.459373 118.67084 65.20937 120.88959Q67.30312 123.53021 67.30312 129.63959Q67.30312 135.73334 65.19375 138.40521Q63.459373 140.59271 60.334373 140.59271Q57.19375 140.59271 55.271873 138.18646Q53.365623 135.78021 53.365623 129.59271Q53.365623 123.53021 55.475 120.87396Q57.209373 118.67084 60.334373 118.67084ZM60.334373 122.07709Q59.584373 122.07709 58.990623 122.56146Q58.4125 123.03021 58.084373 124.26459Q57.6625 125.85834 57.6625 129.63959Q57.6625 133.42084 58.0375 134.84271Q58.428123 136.24896 59.00625 136.71771Q59.584373 137.18646 60.334373 137.18646Q61.084373 137.18646 61.6625 136.71771Q62.25625 136.23334 62.56875 134.99896Q63.00625 133.42084 63.00625 129.63959Q63.00625 125.85834 62.615623 124.45209Q62.240623 123.03021 61.6625 122.56146Q61.084373 122.07709 60.334373 122.07709Z" fill-rule="nonzero"/><path fill="#000000" d="M135.44757 315.43124L143.36945 315.43124Q146.05695 315.43124 147.4632 315.8375Q149.3382 316.38437 150.68195 317.80624Q152.04132 319.22812 152.74445 321.29062Q153.44757 323.35312 153.44757 326.36874Q153.44757 329.025 152.79132 330.93124Q151.97882 333.275 150.49445 334.72812Q149.35382 335.8375 147.44757 336.44687Q146.01007 336.9 143.60382 336.9L135.44757 336.9L135.44757 315.43124ZM139.7757 319.05624L139.7757 333.275L143.01007 333.275Q144.8382 333.275 145.63507 333.07187Q146.69757 332.80624 147.38507 332.18124Q148.0882 331.55624 148.5257 330.11874Q148.9632 328.66562 148.9632 326.18124Q148.9632 323.68124 148.5257 322.35312Q148.0882 321.025 147.29132 320.275Q146.51007 319.525 145.29132 319.25937Q144.38507 319.05624 141.72882 319.05624L139.7757 319.05624ZM176.82257 336.9L172.10382 336.9L170.22882 332.025L161.6507 332.025L159.86945 336.9L155.2757 336.9L163.63507 315.43124L168.22882 315.43124L176.82257 336.9ZM168.8382 328.4L165.88507 320.43124L162.97882 328.4L168.8382 328.4ZM178.57257 336.9L178.57257 315.60312L182.91632 315.60312L182.91632 333.275L193.69757 333.275L193.69757 336.9L178.57257 336.9ZM196.57257 336.9L196.57257 315.60312L200.91632 315.60312L200.91632 333.275L211.69757 333.275L211.69757 336.9L196.57257 336.9ZM215.2132 328.50937L215.2132 324.38437L219.32257 324.38437L219.32257 328.50937L215.2132 328.50937ZM224.4632 336.9L224.4632 315.43124L240.38507 315.43124L240.38507 319.05624L228.79132 319.05624L228.79132 323.82187L239.57257 323.82187L239.57257 327.43124L228.79132 327.43124L228.79132 333.275L240.79132 333.275L240.79132 336.9L224.4632 336.9ZM265.44757 333.07187L265.44757 336.9L251.0257 336.9Q251.26007 334.72812 252.43195 332.79062Q253.60382 330.85312 257.05695 327.63437Q259.8382 325.05624 260.47882 324.11874Q261.32257 322.85312 261.32257 321.60312Q261.32257 320.22812 260.57257 319.49374Q259.8382 318.74374 258.54132 318.74374Q257.24445 318.74374 256.47882 319.525Q255.72882 320.30624 255.60382 322.10312L251.51007 321.69687Q251.86945 318.29062 253.80695 316.82187Q255.74445 315.3375 258.63507 315.3375Q261.82257 315.3375 263.63507 317.05624Q265.44757 318.75937 265.44757 321.30624Q265.44757 322.75937 264.93195 324.07187Q264.41632 325.38437 263.29132 326.82187Q262.54132 327.775 260.5882 329.57187Q258.63507 331.35312 258.11945 331.94687Q257.60382 332.525 257.2757 333.07187L265.44757 333.07187Z" fill-rule="nonzero"/><path fill="#000000" d="M307.55972 315.43124L315.4816 315.43124Q318.1691 315.43124 319.57535 315.8375Q321.45035 316.38437 322.7941 317.80624Q324.15347 319.22812 324.8566 321.29062Q325.55972 323.35312 325.55972 326.36874Q325.55972 329.025 324.90347 330.93124Q324.09097 333.275 322.6066 334.72812Q321.46597 335.8375 319.55972 336.44687Q318.12222 336.9 315.71597 336.9L307.55972 336.9L307.55972 315.43124ZM311.88785 319.05624L311.88785 333.275L315.12222 333.275Q316.95035 333.275 317.74722 333.07187Q318.80972 332.80624 319.49722 332.18124Q320.20035 331.55624 320.63785 330.11874Q321.07535 328.66562 321.07535 326.18124Q321.07535 323.68124 320.63785 322.35312Q320.20035 321.025 319.40347 320.275Q318.62222 319.525 317.40347 319.25937Q316.49722 319.05624 313.84097 319.05624L311.88785 319.05624ZM348.93472 336.9L344.21597 336.9L342.34097 332.025L333.76285 332.025L331.9816 336.9L327.38785 336.9L335.74722 315.43124L340.34097 315.43124L348.93472 336.9ZM340.95035 328.4L337.99722 320.43124L335.09097 328.4L340.95035 328.4ZM350.68472 336.9L350.68472 315.60312L355.02847 315.60312L355.02847 333.275L365.80972 333.275L365.80972 336.9L350.68472 336.9ZM368.68472 336.9L368.68472 315.60312L373.02847 315.60312L373.02847 333.275L383.80972 333.275L383.80972 336.9L368.68472 336.9ZM387.32535 328.50937L387.32535 324.38437L391.43472 324.38437L391.43472 328.50937L387.32535 328.50937ZM396.57535 336.9L396.57535 315.43124L412.49722 315.43124L412.49722 319.05624L400.90347 319.05624L400.90347 323.82187L411.68472 323.82187L411.68472 327.43124L400.90347 327.43124L400.90347 333.275L412.90347 333.275L412.90347 336.9L396.57535 336.9ZM423.51285 331.19687L427.49722 330.7125Q427.68472 332.24374 428.51285 333.05624Q429.3566 333.85312 430.5441 333.85312Q431.82535 333.85312 432.68472 332.88437Q433.55972 331.91562 433.55972 330.275Q433.55972 328.72812 432.71597 327.82187Q431.88785 326.91562 430.70035 326.91562Q429.90347 326.91562 428.80972 327.2125L429.26285 323.86874Q430.93472 323.9 431.80972 323.13437Q432.68472 322.36874 432.68472 321.0875Q432.68472 320.00937 432.0441 319.36874Q431.40347 318.72812 430.32535 318.72812Q429.27847 318.72812 428.52847 319.4625Q427.77847 320.18124 427.62222 321.5875L423.82535 320.94687Q424.21597 318.99374 425.01285 317.8375Q425.80972 316.66562 427.2316 316.00937Q428.6691 315.3375 430.45035 315.3375Q433.4816 315.3375 435.30972 317.275Q436.80972 318.85312 436.80972 320.8375Q436.80972 323.66562 433.7316 325.35312Q435.57535 325.75937 436.6691 327.13437Q437.77847 328.50937 437.77847 330.44687Q437.77847 333.275 435.71597 335.275Q433.65347 337.25937 430.57535 337.25937Q427.6691 337.25937 425.74722 335.5875Q423.82535 333.91562 423.51285 331.19687Z" fill-rule="nonzero"/><path fill="#000000" d="M494.54688 336.9L494.54688 315.43124L498.89062 315.43124L498.89062 336.9L494.54688 336.9ZM502.34375 321.3375L506.14062 321.3375L506.14062 323.4625Q508.17188 320.99374 510.98438 320.99374Q512.4844 320.99374 513.5781 321.61874Q514.6875 322.22812 515.3906 323.4625Q516.40625 322.22812 517.59375 321.61874Q518.78125 320.99374 520.125 320.99374Q521.84375 320.99374 523.03125 321.69687Q524.21875 322.38437 524.7969 323.72812Q525.2344 324.72812 525.2344 326.94687L525.2344 336.9L521.1094 336.9L521.1094 328.00937Q521.1094 325.69687 520.6875 325.025Q520.1094 324.13437 518.9219 324.13437Q518.0625 324.13437 517.2969 324.66562Q516.5469 325.19687 516.2031 326.2125Q515.8594 327.22812 515.8594 329.43124L515.8594 336.9L511.75 336.9L511.75 328.36874Q511.75 326.10312 511.53125 325.44687Q511.3125 324.79062 510.84375 324.4625Q510.39062 324.13437 509.59375 324.13437Q508.64062 324.13437 507.875 324.65Q507.125 325.16562 506.79688 326.13437Q506.46875 327.10312 506.46875 329.3375L506.46875 336.9L502.34375 336.9L502.34375 321.3375ZM531.7344 326.0875L528.0 325.41562Q528.625 323.16562 530.15625 322.0875Q531.7031 320.99374 534.7344 320.99374Q537.4844 320.99374 538.8281 321.65Q540.1875 322.29062 540.7344 323.30624Q541.28125 324.30624 541.28125 326.97812L541.2344 331.79062Q541.2344 333.8375 541.4219 334.82187Q541.625 335.79062 542.1719 336.9L538.1094 336.9Q537.9375 336.49374 537.7031 335.68124Q537.6094 335.32187 537.5625 335.19687Q536.5 336.22812 535.2969 336.74374Q534.1094 337.25937 532.7344 337.25937Q530.34375 337.25937 528.9531 335.9625Q527.5625 334.65 527.5625 332.65Q527.5625 331.3375 528.1875 330.30624Q528.8281 329.275 529.9531 328.72812Q531.09375 328.16562 533.2344 327.75937Q536.125 327.2125 537.2344 326.74374L537.2344 326.3375Q537.2344 325.15 536.6406 324.65Q536.0625 324.13437 534.4375 324.13437Q533.34375 324.13437 532.71875 324.57187Q532.1094 325.00937 531.7344 326.0875ZM537.2344 329.43124Q536.4531 329.69687 534.7344 330.07187Q533.0156 330.43124 532.4844 330.775Q531.6875 331.35312 531.6875 332.22812Q531.6875 333.0875 532.3281 333.72812Q532.96875 334.35312 533.96875 334.35312Q535.0781 334.35312 536.09375 333.61874Q536.84375 333.05624 537.0781 332.25937Q537.2344 331.72812 537.2344 330.24374L537.2344 329.43124ZM545.2656 337.93124L549.96875 338.49374Q550.09375 339.32187 550.5156 339.61874Q551.1094 340.07187 552.3594 340.07187Q553.96875 340.07187 554.78125 339.5875Q555.3281 339.25937 555.59375 338.54062Q555.7969 338.025 555.7969 336.65L555.7969 334.38437Q553.9375 336.9 551.125 336.9Q548.0 336.9 546.1719 334.24374Q544.7344 332.15 544.7344 329.04062Q544.7344 325.11874 546.6094 323.05624Q548.5 320.99374 551.2969 320.99374Q554.1719 320.99374 556.0469 323.525L556.0469 321.3375L559.90625 321.3375L559.90625 335.30624Q559.90625 338.05624 559.4531 339.41562Q559.0 340.775 558.1719 341.55624Q557.3594 342.3375 555.9844 342.775Q554.625 343.2125 552.53125 343.2125Q548.5625 343.2125 546.90625 341.85312Q545.2656 340.50937 545.2656 338.43124Q545.2656 338.2125 545.2656 337.93124ZM548.9531 328.80624Q548.9531 331.275 549.90625 332.43124Q550.875 333.57187 552.28125 333.57187Q553.78125 333.57187 554.8125 332.4Q555.8594 331.2125 555.8594 328.9Q555.8594 326.47812 554.8594 325.30624Q553.875 324.13437 552.34375 324.13437Q550.875 324.13437 549.90625 325.29062Q548.9531 326.44687 548.9531 328.80624ZM572.65625 331.94687L576.7656 332.63437Q575.96875 334.9 574.2656 336.0875Q572.5625 337.25937 570.0 337.25937Q565.9375 337.25937 563.9844 334.60312Q562.4531 332.47812 562.4531 329.24374Q562.4531 325.36874 564.46875 323.18124Q566.5 320.99374 569.59375 320.99374Q573.0625 320.99374 575.0625 323.29062Q577.0781 325.57187 576.9844 330.30624L566.6719 330.30624Q566.71875 332.13437 567.6719 333.16562Q568.625 334.18124 570.0469 334.18124Q571.0 334.18124 571.65625 333.65Q572.3281 333.11874 572.65625 331.94687ZM572.8906 327.79062Q572.8594 325.99374 571.96875 325.07187Q571.09375 324.13437 569.8281 324.13437Q568.4844 324.13437 567.6094 325.11874Q566.7344 326.10312 566.75 327.79062L572.8906 327.79062ZM594.7969 336.9L590.6875 336.9L590.6875 328.9625Q590.6875 326.44687 590.4219 325.7125Q590.15625 324.9625 589.5625 324.55624Q588.96875 324.13437 588.1406 324.13437Q587.0625 324.13437 586.21875 324.72812Q585.375 325.30624 585.0469 326.275Q584.7344 327.24374 584.7344 329.85312L584.7344 336.9L580.625 336.9L580.625 321.3375L584.4531 321.3375L584.4531 323.63437Q586.4844 320.99374 589.5781 320.99374Q590.9375 320.99374 592.0625 321.49374Q593.1875 321.97812 593.7656 322.74374Q594.34375 323.49374 594.5625 324.4625Q594.7969 325.43124 594.7969 327.22812L594.7969 336.9Z" fill-rule="nonzero"/><path fill="#000000" d="M677.69025 329.91562L681.909 329.50937Q682.2996 331.61874 683.4559 332.61874Q684.62775 333.61874 686.5965 333.61874Q688.69025 333.61874 689.75275 332.74374Q690.81525 331.85312 690.81525 330.66562Q690.81525 329.9 690.3621 329.36874Q689.9246 328.82187 688.81525 328.43124Q688.0496 328.16562 685.3465 327.49374Q681.8621 326.63437 680.4559 325.36874Q678.4715 323.60312 678.4715 321.05624Q678.4715 319.41562 679.3934 317.99374Q680.3309 316.55624 682.0809 315.80624Q683.8309 315.05624 686.31525 315.05624Q690.3465 315.05624 692.3934 316.8375Q694.44025 318.60312 694.5496 321.55624L690.2059 321.75937Q689.9246 320.10312 689.00275 319.38437Q688.0965 318.65 686.2684 318.65Q684.37775 318.65 683.2996 319.43124Q682.6121 319.91562 682.6121 320.75937Q682.6121 321.525 683.2684 322.05624Q684.0809 322.74374 687.2371 323.49374Q690.409 324.24374 691.9246 325.04062Q693.44025 325.8375 694.2996 327.22812Q695.159 328.60312 695.159 330.65Q695.159 332.49374 694.12775 334.10312Q693.1121 335.7125 691.2371 336.49374Q689.3621 337.275 686.56525 337.275Q682.4871 337.275 680.2996 335.4Q678.12775 333.50937 677.69025 329.91562ZM698.784 315.43124L706.7059 315.43124Q709.3934 315.43124 710.7996 315.8375Q712.6746 316.38437 714.0184 317.80624Q715.37775 319.22812 716.0809 321.29062Q716.784 323.35312 716.784 326.36874Q716.784 329.025 716.12775 330.93124Q715.31525 333.275 713.8309 334.72812Q712.69025 335.8375 710.784 336.44687Q709.3465 336.9 706.94025 336.9L698.784 336.9L698.784 315.43124ZM703.1121 319.05624L703.1121 333.275L706.3465 333.275Q708.1746 333.275 708.9715 333.07187Q710.034 332.80624 710.7215 332.18124Q711.4246 331.55624 711.8621 330.11874Q712.2996 328.66562 712.2996 326.18124Q712.2996 323.68124 711.8621 322.35312Q711.4246 321.025 710.62775 320.275Q709.8465 319.525 708.62775 319.25937Q707.7215 319.05624 705.06525 319.05624L703.1121 319.05624ZM718.6121 336.9L725.9559 325.69687L719.2996 315.43124L724.3621 315.43124L728.6746 322.32187L732.8934 315.43124L737.9246 315.43124L731.2371 325.85312L738.5809 336.9L733.3465 336.9L728.5809 329.47812L723.81525 336.9L718.6121 336.9ZM740.909 336.9L740.909 315.60312L745.25275 315.60312L745.25275 333.275L756.034 333.275L756.034 336.9L740.909 336.9Z" fill-rule="nonzero"/><path fill="#000000" d="M802.9587 336.9L802.9587 315.43124L807.3024 315.43124L807.3024 324.9625L816.06805 315.43124L821.8962 315.43124L813.8024 323.79062L822.3337 336.9L816.7243 336.9L810.81805 326.82187L807.3024 330.41562L807.3024 336.9L802.9587 336.9ZM827.9587 326.0875L824.2243 325.41562Q824.8493 323.16562 826.38055 322.0875Q827.9274 320.99374 830.9587 320.99374Q833.7087 320.99374 835.0524 321.65Q836.4118 322.29062 836.9587 323.30624Q837.50555 324.30624 837.50555 326.97812L837.4587 331.79062Q837.4587 333.8375 837.6462 334.82187Q837.8493 335.79062 838.3962 336.9L834.3337 336.9Q834.1618 336.49374 833.9274 335.68124Q833.8337 335.32187 833.7868 335.19687Q832.7243 336.22812 831.5212 336.74374Q830.3337 337.25937 828.9587 337.25937Q826.56805 337.25937 825.1774 335.9625Q823.7868 334.65 823.7868 332.65Q823.7868 331.3375 824.4118 330.30624Q825.0524 329.275 826.1774 328.72812Q827.31805 328.16562 829.4587 327.75937Q832.3493 327.2125 833.4587 326.74374L833.4587 326.3375Q833.4587 325.15 832.8649 324.65Q832.2868 324.13437 830.6618 324.13437Q829.56805 324.13437 828.94305 324.57187Q828.3337 325.00937 827.9587 326.0875ZM833.4587 329.43124Q832.6774 329.69687 830.9587 330.07187Q829.2399 330.43124 828.7087 330.775Q827.9118 331.35312 827.9118 332.22812Q827.9118 333.0875 828.5524 333.72812Q829.19305 334.35312 830.19305 334.35312Q831.3024 334.35312 832.31805 333.61874Q833.06805 333.05624 833.3024 332.25937Q833.4587 331.72812 833.4587 330.24374L833.4587 329.43124ZM856.0212 336.9L851.9118 336.9L851.9118 328.9625Q851.9118 326.44687 851.6462 325.7125Q851.38055 324.9625 850.7868 324.55624Q850.19305 324.13437 849.3649 324.13437Q848.2868 324.13437 847.44305 324.72812Q846.5993 325.30624 846.2712 326.275Q845.9587 327.24374 845.9587 329.85312L845.9587 336.9L841.8493 336.9L841.8493 321.3375L845.6774 321.3375L845.6774 323.63437Q847.7087 320.99374 850.8024 320.99374Q852.1618 320.99374 853.2868 321.49374Q854.4118 321.97812 854.9899 322.74374Q855.56805 323.49374 855.7868 324.4625Q856.0212 325.43124 856.0212 327.22812L856.0212 336.9ZM874.1462 336.9L870.31805 336.9L870.31805 334.61874Q869.3649 335.94687 868.06805 336.60312Q866.7712 337.25937 865.4587 337.25937Q862.7712 337.25937 860.8649 335.10312Q858.9587 332.93124 858.9587 329.05624Q858.9587 325.10312 860.81805 323.05624Q862.6774 320.99374 865.5212 320.99374Q868.13055 320.99374 870.0368 323.16562L870.0368 315.43124L874.1462 315.43124L874.1462 336.9ZM863.1618 328.79062Q863.1618 331.275 863.8493 332.38437Q864.8493 333.99374 866.63055 333.99374Q868.0524 333.99374 869.0368 332.79062Q870.0368 331.5875 870.0368 329.18124Q870.0368 326.49374 869.06805 325.32187Q868.1149 324.13437 866.5993 324.13437Q865.13055 324.13437 864.1462 325.30624Q863.1618 326.4625 863.1618 328.79062ZM877.88055 319.22812L877.88055 315.43124L881.9899 315.43124L881.9899 319.22812L877.88055 319.22812ZM877.88055 336.9L877.88055 321.3375L881.9899 321.3375L881.9899 336.9L877.88055 336.9ZM900.0212 336.9L895.9118 336.9L895.9118 328.9625Q895.9118 326.44687 895.6462 325.7125Q895.38055 324.9625 894.7868 324.55624Q894.19305 324.13437 893.3649 324.13437Q892.2868 324.13437 891.44305 324.72812Q890.5993 325.30624 890.2712 326.275Q889.9587 327.24374 889.9587 329.85312L889.9587 336.9L885.8493 336.9L885.8493 321.3375L889.6774 321.3375L889.6774 323.63437Q891.7087 320.99374 894.8024 320.99374Q896.1618 320.99374 897.2868 321.49374Q898.4118 321.97812 898.9899 322.74374Q899.56805 323.49374 899.7868 324.4625Q900.0212 325.43124 900.0212 327.22812L900.0212 336.9ZM902.4274 332.4625L906.5524 331.8375Q906.81805 333.025 907.6149 333.65Q908.4274 334.275 909.88055 334.275Q911.4743 334.275 912.2868 333.69687Q912.8337 333.275 912.8337 332.5875Q912.8337 332.11874 912.5368 331.82187Q912.2243 331.525 911.1618 331.275Q906.1774 330.18124 904.8493 329.275Q903.00555 328.00937 903.00555 325.75937Q903.00555 323.74374 904.5993 322.36874Q906.19305 320.99374 909.5524 320.99374Q912.7399 320.99374 914.2868 322.04062Q915.8493 323.07187 916.4274 325.10312L912.5524 325.82187Q912.3024 324.91562 911.5993 324.43124Q910.9118 323.94687 909.6149 323.94687Q907.9899 323.94687 907.2868 324.4Q906.81805 324.72812 906.81805 325.24374Q906.81805 325.68124 907.2399 325.99374Q907.7868 326.4 911.06805 327.15Q914.3649 327.88437 915.6774 328.97812Q916.9587 330.07187 916.9587 332.04062Q916.9587 334.18124 915.1618 335.72812Q913.38055 337.25937 909.88055 337.25937Q906.7087 337.25937 904.8493 335.9625Q903.00555 334.66562 902.4274 332.4625ZM920.7243 336.9L920.7243 315.43124L924.8493 315.43124L924.8493 326.82187L929.6618 321.3375L934.7399 321.3375L929.4118 327.025L935.1149 336.9L930.6774 336.9L926.7712 329.91562L924.8493 331.91562L924.8493 336.9L920.7243 336.9ZM935.9274 321.3375L940.3024 321.3375L944.0368 332.38437L947.6618 321.3375L951.9274 321.3375L946.4274 336.30624L945.4587 339.025Q944.9118 340.38437 944.4118 341.10312Q943.9274 341.82187 943.2868 342.25937Q942.6462 342.7125 941.7087 342.9625Q940.7868 343.2125 939.6149 343.2125Q938.4274 343.2125 937.2868 342.9625L936.9274 339.74374Q937.8962 339.93124 938.6618 339.93124Q940.0993 339.93124 940.7868 339.0875Q941.4743 338.24374 941.8493 336.94687L935.9274 321.3375ZM974.8962 333.07187L974.8962 336.9L960.4743 336.9Q960.7087 334.72812 961.88055 332.79062Q963.0524 330.85312 966.50555 327.63437Q969.2868 325.05624 969.9274 324.11874Q970.7712 322.85312 970.7712 321.60312Q970.7712 320.22812 970.0212 319.49374Q969.2868 318.74374 967.9899 318.74374Q966.69305 318.74374 965.9274 319.525Q965.1774 320.30624 965.0524 322.10312L960.9587 321.69687Q961.31805 318.29062 963.25555 316.82187Q965.19305 315.3375 968.0837 315.3375Q971.2712 315.3375 973.0837 317.05624Q974.8962 318.75937 974.8962 321.30624Q974.8962 322.75937 974.38055 324.07187Q973.8649 325.38437 972.7399 326.82187Q971.9899 327.775 970.0368 329.57187Q968.0837 331.35312 967.56805 331.94687Q967.0524 332.525 966.7243 333.07187L974.8962 333.07187Z" fill-rule="nonzero"/><path fill="#4285f4" d="M157.5 77.666664C157.5 77.11438 157.94771 76.666664 158.5 76.666664L168.5 76.666664C169.05229 76.666664 169.5 77.11438 169.5 77.666664L169.5 87.666664C169.5 88.21895 169.05229 88.666664 168.5 88.666664L158.5 88.666664C157.94771 88.666664 157.5 88.21895 157.5 87.666664Z" fill-rule="nonzero"/><path fill="#1a1a1a" d="M179.71875 93.166664L179.71875 71.697914L194.4375 71.697914L194.4375 75.322914L184.04688 75.322914L184.04688 80.40104L193.01562 80.40104L193.01562 84.041664L184.04688 84.041664L184.04688 93.166664L179.71875 93.166664ZM200.73438 82.354164L197.0 81.68229Q197.625 79.43229 199.15625 78.354164Q200.70312 77.260414 203.73438 77.260414Q206.48438 77.260414 207.82812 77.916664Q209.1875 78.55729 209.73438 79.572914Q210.28125 80.572914 210.28125 83.24479L210.23438 88.05729Q210.23438 90.104164 210.42188 91.08854Q210.625 92.05729 211.17188 93.166664L207.10938 93.166664Q206.9375 92.760414 206.70312 91.947914Q206.60938 91.58854 206.5625 91.46354Q205.5 92.49479 204.29688 93.010414Q203.10938 93.52604 201.73438 93.52604Q199.34375 93.52604 197.95312 92.229164Q196.5625 90.916664 196.5625 88.916664Q196.5625 87.604164 197.1875 86.572914Q197.82812 85.541664 198.95312 84.99479Q200.09375 84.43229 202.23438 84.02604Q205.125 83.479164 206.23438 83.010414L206.23438 82.604164Q206.23438 81.416664 205.64062 80.916664Q205.0625 80.40104 203.4375 80.40104Q202.34375 80.40104 201.71875 80.83854Q201.10938 81.27604 200.73438 82.354164ZM206.23438 85.697914Q205.45312 85.96354 203.73438 86.33854Q202.01562 86.697914 201.48438 87.041664Q200.6875 87.61979 200.6875 88.49479Q200.6875 89.354164 201.32812 89.99479Q201.96875 90.61979 202.96875 90.61979Q204.07812 90.61979 205.09375 89.885414Q205.84375 89.322914 206.07812 88.52604Q206.23438 87.99479 206.23438 86.510414L206.23438 85.697914ZM214.5 93.166664L214.5 71.697914L218.625 71.697914L218.625 83.08854L223.4375 77.604164L228.51562 77.604164L223.1875 83.291664L228.89062 93.166664L224.45312 93.166664L220.54688 86.18229L218.625 88.18229L218.625 93.166664L214.5 93.166664ZM240.65625 88.21354L244.76562 88.90104Q243.96875 91.166664 242.26562 92.354164Q240.5625 93.52604 238.0 93.52604Q233.9375 93.52604 231.98438 90.86979Q230.45312 88.74479 230.45312 85.510414Q230.45312 81.635414 232.46875 79.447914Q234.5 77.260414 237.59375 77.260414Q241.0625 77.260414 243.0625 79.55729Q245.07812 81.83854 244.98438 86.572914L234.67188 86.572914Q234.71875 88.40104 235.67188 89.43229Q236.625 90.447914 238.04688 90.447914Q239.0 90.447914 239.65625 89.916664Q240.32812 89.385414 240.65625 88.21354ZM240.89062 84.05729Q240.85938 82.260414 239.96875 81.33854Q239.09375 80.40104 237.82812 80.40104Q236.48438 80.40104 235.60938 81.385414Q234.73438 82.36979 234.75 84.05729L240.89062 84.05729ZM260.9375 93.166664L254.65625 77.604164L258.98438 77.604164L261.90625 85.541664L262.76562 88.197914Q263.09375 87.18229 263.1875 86.86979Q263.39062 86.21354 263.625 85.541664L266.57812 77.604164L270.8125 77.604164L264.64062 93.166664L260.9375 93.166664ZM272.20312 88.729164L276.32812 88.104164Q276.59375 89.291664 277.39062 89.916664Q278.20312 90.541664 279.65625 90.541664Q281.25 90.541664 282.0625 89.96354Q282.60938 89.541664 282.60938 88.854164Q282.60938 88.385414 282.3125 88.08854Q282.0 87.791664 280.9375 87.541664Q275.95312 86.447914 274.625 85.541664Q272.78125 84.27604 272.78125 82.02604Q272.78125 80.010414 274.375 78.635414Q275.96875 77.260414 279.32812 77.260414Q282.51562 77.260414 284.0625 78.30729Q285.625 79.33854 286.20312 81.36979L282.32812 82.08854Q282.07812 81.18229 281.375 80.697914Q280.6875 80.21354 279.39062 80.21354Q277.76562 80.21354 277.0625 80.666664Q276.59375 80.99479 276.59375 81.510414Q276.59375 81.947914 277.01562 82.260414Q277.5625 82.666664 280.84375 83.416664Q284.14062 84.15104 285.45312 85.24479Q286.73438 86.33854 286.73438 88.30729Q286.73438 90.447914 284.9375 91.99479Q283.15625 93.52604 279.65625 93.52604Q276.48438 93.52604 274.625 92.229164Q272.78125 90.93229 272.20312 88.729164ZM298.79688 93.166664L298.79688 71.86979L303.14062 71.86979L303.14062 89.541664L313.92188 89.541664L313.92188 93.166664L298.79688 93.166664ZM336.04688 93.166664L331.32812 93.166664L329.45312 88.291664L320.875 88.291664L319.09375 93.166664L314.5 93.166664L322.85938 71.697914L327.45312 71.697914L336.04688 93.166664ZM328.0625 84.666664L325.10938 76.697914L322.20312 84.666664L328.0625 84.666664ZM337.54688 93.166664L337.54688 71.697914L341.89062 71.697914L341.89062 93.166664L337.54688 93.166664ZM344.79688 82.55729Q344.79688 79.27604 345.78125 77.05729Q346.51562 75.416664 347.78125 74.11979Q349.04688 72.80729 350.5625 72.18229Q352.5625 71.322914 355.1875 71.322914Q359.9375 71.322914 362.78125 74.27604Q365.64062 77.21354 365.64062 82.46354Q365.64062 87.65104 362.8125 90.58854Q359.98438 93.52604 355.25 93.52604Q350.45312 93.52604 347.625 90.604164Q344.79688 87.68229 344.79688 82.55729ZM349.26562 82.416664Q349.26562 86.05729 350.95312 87.947914Q352.64062 89.822914 355.23438 89.822914Q357.82812 89.822914 359.48438 87.96354Q361.15625 86.08854 361.15625 82.354164Q361.15625 78.666664 359.53125 76.854164Q357.92188 75.02604 355.23438 75.02604Q352.54688 75.02604 350.90625 76.86979Q349.26562 78.71354 349.26562 82.416664ZM368.73438 93.166664L368.73438 71.697914L372.95312 71.697914L381.73438 86.02604L381.73438 71.697914L385.76562 71.697914L385.76562 93.166664L381.40625 93.166664L372.75 79.166664L372.75 93.166664L368.73438 93.166664Z" fill-rule="nonzero"/><path fill="#ea4335" d="M404.5 77.666664C404.5 77.11438 404.94772 76.666664 405.5 76.666664L415.5 76.666664C416.05228 76.666664 416.5 77.11438 416.5 77.666664L416.5 87.666664C416.5 88.21895 416.05228 88.666664 415.5 88.666664L405.5 88.666664C404.94772 88.666664 404.5 88.21895 404.5 87.666664Z" fill-rule="nonzero"/><path fill="#1a1a1a" d="M426.71875 93.166664L426.71875 71.697914L441.4375 71.697914L441.4375 75.322914L431.04688 75.322914L431.04688 80.40104L440.01562 80.40104L440.01562 84.041664L431.04688 84.041664L431.04688 93.166664L426.71875 93.166664ZM447.73438 82.354164L444.0 81.68229Q444.625 79.43229 446.15625 78.354164Q447.70312 77.260414 450.73438 77.260414Q453.48438 77.260414 454.82812 77.916664Q456.1875 78.55729 456.73438 79.572914Q457.28125 80.572914 457.28125 83.24479L457.23438 88.05729Q457.23438 90.104164 457.42188 91.08854Q457.625 92.05729 458.17188 93.166664L454.10938 93.166664Q453.9375 92.760414 453.70312 91.947914Q453.60938 91.58854 453.5625 91.46354Q452.5 92.49479 451.29688 93.010414Q450.10938 93.52604 448.73438 93.52604Q446.34375 93.52604 444.95312 92.229164Q443.5625 90.916664 443.5625 88.916664Q443.5625 87.604164 444.1875 86.572914Q444.82812 85.541664 445.95312 84.99479Q447.09375 84.43229 449.23438 84.02604Q452.125 83.479164 453.23438 83.010414L453.23438 82.604164Q453.23438 81.416664 452.64062 80.916664Q452.0625 80.40104 450.4375 80.40104Q449.34375 80.40104 448.71875 80.83854Q448.10938 81.27604 447.73438 82.354164ZM453.23438 85.697914Q452.45312 85.96354 450.73438 86.33854Q449.01562 86.697914 448.48438 87.041664Q447.6875 87.61979 447.6875 88.49479Q447.6875 89.354164 448.32812 89.99479Q448.96875 90.61979 449.96875 90.61979Q451.07812 90.61979 452.09375 89.885414Q452.84375 89.322914 453.07812 88.52604Q453.23438 87.99479 453.23438 86.510414L453.23438 85.697914ZM461.5 93.166664L461.5 71.697914L465.625 71.697914L465.625 83.08854L470.4375 77.604164L475.51562 77.604164L470.1875 83.291664L475.89062 93.166664L471.45312 93.166664L467.54688 86.18229L465.625 88.18229L465.625 93.166664L461.5 93.166664ZM487.65625 88.21354L491.76562 88.90104Q490.96875 91.166664 489.26562 92.354164Q487.5625 93.52604 485.0 93.52604Q480.9375 93.52604 478.98438 90.86979Q477.45312 88.74479 477.45312 85.510414Q477.45312 81.635414 479.46875 79.447914Q481.5 77.260414 484.59375 77.260414Q488.0625 77.260414 490.0625 79.55729Q492.07812 81.83854 491.98438 86.572914L481.67188 86.572914Q481.71875 88.40104 482.67188 89.43229Q483.625 90.447914 485.04688 90.447914Q486.0 90.447914 486.65625 89.916664Q487.32812 89.385414 487.65625 88.21354ZM487.89062 84.05729Q487.85938 82.260414 486.96875 81.33854Q486.09375 80.40104 484.82812 80.40104Q483.48438 80.40104 482.60938 81.385414Q481.73438 82.36979 481.75 84.05729L487.89062 84.05729ZM507.9375 93.166664L501.65625 77.604164L505.98438 77.604164L508.90625 85.541664L509.76562 88.197914Q510.09375 87.18229 510.1875 86.86979Q510.39062 86.21354 510.625 85.541664L513.5781 77.604164L517.8125 77.604164L511.64062 93.166664L507.9375 93.166664ZM519.2031 88.729164L523.3281 88.104164Q523.59375 89.291664 524.3906 89.916664Q525.2031 90.541664 526.65625 90.541664Q528.25 90.541664 529.0625 89.96354Q529.6094 89.541664 529.6094 88.854164Q529.6094 88.385414 529.3125 88.08854Q529.0 87.791664 527.9375 87.541664Q522.9531 86.447914 521.625 85.541664Q519.78125 84.27604 519.78125 82.02604Q519.78125 80.010414 521.375 78.635414Q522.96875 77.260414 526.3281 77.260414Q529.5156 77.260414 531.0625 78.30729Q532.625 79.33854 533.2031 81.36979L529.3281 82.08854Q529.0781 81.18229 528.375 80.697914Q527.6875 80.21354 526.3906 80.21354Q524.7656 80.21354 524.0625 80.666664Q523.59375 80.99479 523.59375 81.510414Q523.59375 81.947914 524.0156 82.260414Q524.5625 82.666664 527.84375 83.416664Q531.1406 84.15104 532.4531 85.24479Q533.7344 86.33854 533.7344 88.30729Q533.7344 90.447914 531.9375 91.99479Q530.15625 93.52604 526.65625 93.52604Q523.4844 93.52604 521.625 92.229164Q519.78125 90.93229 519.2031 88.729164ZM545.7031 93.166664L545.7031 71.697914L554.8281 71.697914Q558.2656 71.697914 559.8281 72.27604Q561.3906 72.854164 562.3281 74.33854Q563.2656 75.80729 563.2656 77.71354Q563.2656 80.135414 561.84375 81.71354Q560.4219 83.27604 557.59375 83.68229Q559.0 84.510414 559.90625 85.49479Q560.8281 86.479164 562.375 88.979164L565.0 93.166664L559.8125 93.166664L556.6875 88.49479Q555.0156 85.99479 554.3906 85.33854Q553.78125 84.68229 553.09375 84.447914Q552.40625 84.197914 550.90625 84.197914L550.03125 84.197914L550.03125 93.166664L545.7031 93.166664ZM550.03125 80.77604L553.2344 80.77604Q556.3594 80.77604 557.1406 80.510414Q557.9219 80.24479 558.3594 79.604164Q558.7969 78.96354 558.7969 77.99479Q558.7969 76.90104 558.21875 76.24479Q557.6406 75.572914 556.5781 75.40104Q556.0469 75.322914 553.4219 75.322914L550.03125 75.322914L550.03125 80.77604ZM576.65625 88.21354L580.7656 88.90104Q579.96875 91.166664 578.2656 92.354164Q576.5625 93.52604 574.0 93.52604Q569.9375 93.52604 567.9844 90.86979Q566.4531 88.74479 566.4531 85.510414Q566.4531 81.635414 568.46875 79.447914Q570.5 77.260414 573.59375 77.260414Q577.0625 77.260414 579.0625 79.55729Q581.0781 81.83854 580.9844 86.572914L570.6719 86.572914Q570.71875 88.40104 571.6719 89.43229Q572.625 90.447914 574.0469 90.447914Q575.0 90.447914 575.65625 89.916664Q576.3281 89.385414 576.65625 88.21354ZM576.8906 84.05729Q576.8594 82.260414 575.96875 81.33854Q575.09375 80.40104 573.8281 80.40104Q572.4844 80.40104 571.6094 81.385414Q570.7344 82.36979 570.75 84.05729L576.8906 84.05729ZM588.9375 93.166664L582.65625 77.604164L586.9844 77.604164L589.90625 85.541664L590.7656 88.197914Q591.09375 87.18229 591.1875 86.86979Q591.3906 86.21354 591.625 85.541664L594.5781 77.604164L598.8125 77.604164L592.6406 93.166664L588.9375 93.166664ZM610.65625 88.21354L614.7656 88.90104Q613.96875 91.166664 612.2656 92.354164Q610.5625 93.52604 608.0 93.52604Q603.9375 93.52604 601.9844 90.86979Q600.4531 88.74479 600.4531 85.510414Q600.4531 81.635414 602.46875 79.447914Q604.5 77.260414 607.59375 77.260414Q611.0625 77.260414 613.0625 79.55729Q615.0781 81.83854 614.9844 86.572914L604.6719 86.572914Q604.71875 88.40104 605.6719 89.43229Q606.625 90.447914 608.0469 90.447914Q609.0 90.447914 609.65625 89.916664Q610.3281 89.385414 610.65625 88.21354ZM610.8906 84.05729Q610.8594 82.260414 609.96875 81.33854Q609.09375 80.40104 607.8281 80.40104Q606.4844 80.40104 605.6094 81.385414Q604.7344 82.36979 604.75 84.05729L610.8906 84.05729ZM622.59375 93.166664L618.4844 93.166664L618.4844 77.604164L622.2969 77.604164L622.2969 79.822914Q623.28125 78.260414 624.0625 77.760414Q624.84375 77.260414 625.84375 77.260414Q627.25 77.260414 628.5625 78.041664L627.28125 81.61979Q626.2344 80.947914 625.34375 80.947914Q624.4844 80.947914 623.875 81.43229Q623.28125 81.90104 622.9375 83.15104Q622.59375 84.385414 622.59375 88.354164L622.59375 93.166664ZM629.2031 88.729164L633.3281 88.104164Q633.59375 89.291664 634.3906 89.916664Q635.2031 90.541664 636.65625 90.541664Q638.25 90.541664 639.0625 89.96354Q639.6094 89.541664 639.6094 88.854164Q639.6094 88.385414 639.3125 88.08854Q639.0 87.791664 637.9375 87.541664Q632.9531 86.447914 631.625 85.541664Q629.78125 84.27604 629.78125 82.02604Q629.78125 80.010414 631.375 78.635414Q632.96875 77.260414 636.3281 77.260414Q639.5156 77.260414 641.0625 78.30729Q642.625 79.33854 643.2031 81.36979L639.3281 82.08854Q639.0781 81.18229 638.375 80.697914Q637.6875 80.21354 636.3906 80.21354Q634.7656 80.21354 634.0625 80.666664Q633.59375 80.99479 633.59375 81.510414Q633.59375 81.947914 634.0156 82.260414Q634.5625 82.666664 637.84375 83.416664Q641.1406 84.15104 642.4531 85.24479Q643.7344 86.33854 643.7344 88.30729Q643.7344 90.447914 641.9375 91.99479Q640.15625 93.52604 636.65625 93.52604Q633.4844 93.52604 631.625 92.229164Q629.78125 90.93229 629.2031 88.729164ZM656.65625 88.21354L660.7656 88.90104Q659.96875 91.166664 658.2656 92.354164Q656.5625 93.52604 654.0 93.52604Q649.9375 93.52604 647.9844 90.86979Q646.4531 88.74479 646.4531 85.510414Q646.4531 81.635414 648.46875 79.447914Q650.5 77.260414 653.59375 77.260414Q657.0625 77.260414 659.0625 79.55729Q661.0781 81.83854 660.9844 86.572914L650.6719 86.572914Q650.71875 88.40104 651.6719 89.43229Q652.625 90.447914 654.0469 90.447914Q655.0 90.447914 655.65625 89.916664Q656.3281 89.385414 656.65625 88.21354ZM656.8906 84.05729Q656.8594 82.260414 655.96875 81.33854Q655.09375 80.40104 653.8281 80.40104Q652.4844 80.40104 651.6094 81.385414Q650.7344 82.36979 650.75 84.05729L656.8906 84.05729ZM672.5469 93.166664L672.5469 71.697914L676.8906 71.697914L676.8906 93.166664L672.5469 93.166664ZM680.34375 77.604164L684.1406 77.604164L684.1406 79.729164Q686.1719 77.260414 688.9844 77.260414Q690.4844 77.260414 691.5781 77.885414Q692.6875 78.49479 693.3906 79.729164Q694.40625 78.49479 695.59375 77.885414Q696.78125 77.260414 698.125 77.260414Q699.84375 77.260414 701.03125 77.96354Q702.21875 78.65104 702.7969 79.99479Q703.2344 80.99479 703.2344 83.21354L703.2344 93.166664L699.1094 93.166664L699.1094 84.27604Q699.1094 81.96354 698.6875 81.291664Q698.1094 80.40104 696.9219 80.40104Q696.0625 80.40104 695.2969 80.93229Q694.5469 81.46354 694.2031 82.479164Q693.8594 83.49479 693.8594 85.697914L693.8594 93.166664L689.75 93.166664L689.75 84.635414Q689.75 82.36979 689.53125 81.71354Q689.3125 81.05729 688.84375 80.729164Q688.3906 80.40104 687.59375 80.40104Q686.6406 80.40104 685.875 80.916664Q685.125 81.43229 684.7969 82.40104Q684.46875 83.36979 684.46875 85.604164L684.46875 93.166664L680.34375 93.166664L680.34375 77.604164ZM709.7344 82.354164L706.0 81.68229Q706.625 79.43229 708.15625 78.354164Q709.7031 77.260414 712.7344 77.260414Q715.4844 77.260414 716.8281 77.916664Q718.1875 78.55729 718.7344 79.572914Q719.28125 80.572914 719.28125 83.24479L719.2344 88.05729Q719.2344 90.104164 719.4219 91.08854Q719.625 92.05729 720.1719 93.166664L716.1094 93.166664Q715.9375 92.760414 715.7031 91.947914Q715.6094 91.58854 715.5625 91.46354Q714.5 92.49479 713.2969 93.010414Q712.1094 93.52604 710.7344 93.52604Q708.34375 93.52604 706.9531 92.229164Q705.5625 90.916664 705.5625 88.916664Q705.5625 87.604164 706.1875 86.572914Q706.8281 85.541664 707.9531 84.99479Q709.09375 84.43229 711.2344 84.02604Q714.125 83.479164 715.2344 83.010414L715.2344 82.604164Q715.2344 81.416664 714.6406 80.916664Q714.0625 80.40104 712.4375 80.40104Q711.34375 80.40104 710.71875 80.83854Q710.1094 81.27604 709.7344 82.354164ZM715.2344 85.697914Q714.4531 85.96354 712.7344 86.33854Q711.0156 86.697914 710.4844 87.041664Q709.6875 87.61979 709.6875 88.49479Q709.6875 89.354164 710.3281 89.99479Q710.96875 90.61979 711.96875 90.61979Q713.0781 90.61979 714.09375 89.885414Q714.84375 89.322914 715.0781 88.52604Q715.2344 87.99479 715.2344 86.510414L715.2344 85.697914ZM723.2656 94.197914L727.96875 94.760414Q728.09375 95.58854 728.5156 95.885414Q729.1094 96.33854 730.3594 96.33854Q731.96875 96.33854 732.78125 95.854164Q733.3281 95.52604 733.59375 94.80729Q733.7969 94.291664 733.7969 92.916664L733.7969 90.65104Q731.9375 93.166664 729.125 93.166664Q726.0 93.166664 724.1719 90.510414Q722.7344 88.416664 722.7344 85.30729Q722.7344 81.385414 724.6094 79.322914Q726.5 77.260414 729.2969 77.260414Q732.1719 77.260414 734.0469 79.791664L734.0469 77.604164L737.90625 77.604164L737.90625 91.572914Q737.90625 94.322914 737.4531 95.68229Q737.0 97.041664 736.1719 97.822914Q735.3594 98.604164 733.9844 99.041664Q732.625 99.479164 730.53125 99.479164Q726.5625 99.479164 724.90625 98.11979Q723.2656 96.77604 723.2656 94.697914Q723.2656 94.479164 723.2656 94.197914ZM726.9531 85.072914Q726.9531 87.541664 727.90625 88.697914Q728.875 89.83854 730.28125 89.83854Q731.78125 89.83854 732.8125 88.666664Q733.8594 87.479164 733.8594 85.166664Q733.8594 82.74479 732.8594 81.572914Q731.875 80.40104 730.34375 80.40104Q728.875 80.40104 727.90625 81.55729Q726.9531 82.71354 726.9531 85.072914ZM750.65625 88.21354L754.7656 88.90104Q753.96875 91.166664 752.2656 92.354164Q750.5625 93.52604 748.0 93.52604Q743.9375 93.52604 741.9844 90.86979Q740.4531 88.74479 740.4531 85.510414Q740.4531 81.635414 742.46875 79.447914Q744.5 77.260414 747.59375 77.260414Q751.0625 77.260414 753.0625 79.55729Q755.0781 81.83854 754.9844 86.572914L744.6719 86.572914Q744.71875 88.40104 745.6719 89.43229Q746.625 90.447914 748.0469 90.447914Q749.0 90.447914 749.65625 89.916664Q750.3281 89.385414 750.65625 88.21354ZM750.8906 84.05729Q750.8594 82.260414 749.96875 81.33854Q749.09375 80.40104 747.8281 80.40104Q746.4844 80.40104 745.6094 81.385414Q744.7344 82.36979 744.75 84.05729L750.8906 84.05729ZM765.5781 86.18229L769.7969 85.77604Q770.1875 87.885414 771.34375 88.885414Q772.5156 89.885414 774.4844 89.885414Q776.5781 89.885414 777.6406 89.010414Q778.7031 88.11979 778.7031 86.93229Q778.7031 86.166664 778.25 85.635414Q777.8125 85.08854 776.7031 84.697914Q775.9375 84.43229 773.2344 83.760414Q769.75 82.90104 768.34375 81.635414Q766.3594 79.86979 766.3594 77.322914Q766.3594 75.68229 767.28125 74.260414Q768.21875 72.822914 769.96875 72.072914Q771.71875 71.322914 774.2031 71.322914Q778.2344 71.322914 780.28125 73.104164Q782.3281 74.86979 782.4375 77.822914L778.09375 78.02604Q777.8125 76.36979 776.8906 75.65104Q775.9844 74.916664 774.15625 74.916664Q772.2656 74.916664 771.1875 75.697914Q770.5 76.18229 770.5 77.02604Q770.5 77.791664 771.15625 78.322914Q771.96875 79.010414 775.125 79.760414Q778.2969 80.510414 779.8125 81.30729Q781.3281 82.104164 782.1875 83.49479Q783.0469 84.86979 783.0469 86.916664Q783.0469 88.760414 782.0156 90.36979Q781.0 91.979164 779.125 92.760414Q777.25 93.541664 774.4531 93.541664Q770.375 93.541664 768.1875 91.666664Q766.0156 89.77604 765.5781 86.18229ZM795.65625 88.21354L799.7656 88.90104Q798.96875 91.166664 797.2656 92.354164Q795.5625 93.52604 793.0 93.52604Q788.9375 93.52604 786.9844 90.86979Q785.4531 88.74479 785.4531 85.510414Q785.4531 81.635414 787.46875 79.447914Q789.5 77.260414 792.59375 77.260414Q796.0625 77.260414 798.0625 79.55729Q800.0781 81.83854 799.9844 86.572914L789.6719 86.572914Q789.71875 88.40104 790.6719 89.43229Q791.625 90.447914 793.0469 90.447914Q794.0 90.447914 794.65625 89.916664Q795.3281 89.385414 795.65625 88.21354ZM795.8906 84.05729Q795.8594 82.260414 794.96875 81.33854Q794.09375 80.40104 792.8281 80.40104Q791.4844 80.40104 790.6094 81.385414Q789.7344 82.36979 789.75 84.05729L795.8906 84.05729ZM806.7344 82.354164L803.0 81.68229Q803.625 79.43229 805.15625 78.354164Q806.7031 77.260414 809.7344 77.260414Q812.4844 77.260414 813.8281 77.916664Q815.1875 78.55729 815.7344 79.572914Q816.28125 80.572914 816.28125 83.24479L816.2344 88.05729Q816.2344 90.104164 816.4219 91.08854Q816.625 92.05729 817.1719 93.166664L813.1094 93.166664Q812.9375 92.760414 812.7031 91.947914Q812.6094 91.58854 812.5625 91.46354Q811.5 92.49479 810.2969 93.010414Q809.1094 93.52604 807.7344 93.52604Q805.34375 93.52604 803.9531 92.229164Q802.5625 90.916664 802.5625 88.916664Q802.5625 87.604164 803.1875 86.572914Q803.8281 85.541664 804.9531 84.99479Q806.09375 84.43229 808.2344 84.02604Q811.125 83.479164 812.2344 83.010414L812.2344 82.604164Q812.2344 81.416664 811.6406 80.916664Q811.0625 80.40104 809.4375 80.40104Q808.34375 80.40104 807.71875 80.83854Q807.1094 81.27604 806.7344 82.354164ZM812.2344 85.697914Q811.4531 85.96354 809.7344 86.33854Q808.0156 86.697914 807.4844 87.041664Q806.6875 87.61979 806.6875 88.49479Q806.6875 89.354164 807.3281 89.99479Q807.96875 90.61979 808.96875 90.61979Q810.0781 90.61979 811.09375 89.885414Q811.84375 89.322914 812.0781 88.52604Q812.2344 87.99479 812.2344 86.510414L812.2344 85.697914ZM824.59375 93.166664L820.4844 93.166664L820.4844 77.604164L824.2969 77.604164L824.2969 79.822914Q825.28125 78.260414 826.0625 77.760414Q826.84375 77.260414 827.84375 77.260414Q829.25 77.260414 830.5625 78.041664L829.28125 81.61979Q828.2344 80.947914 827.34375 80.947914Q826.4844 80.947914 825.875 81.43229Q825.28125 81.90104 824.9375 83.15104Q824.59375 84.385414 824.59375 88.354164L824.59375 93.166664ZM846.21875 82.21354L842.15625 82.947914Q841.9531 81.729164 841.21875 81.11979Q840.5 80.49479 839.34375 80.49479Q837.8125 80.49479 836.8906 81.55729Q835.9844 82.61979 835.9844 85.104164Q835.9844 87.885414 836.90625 89.02604Q837.84375 90.166664 839.40625 90.166664Q840.5781 90.166664 841.3281 89.49479Q842.0781 88.822914 842.375 87.197914L846.4219 87.885414Q845.7969 90.68229 844.0 92.104164Q842.21875 93.52604 839.21875 93.52604Q835.7969 93.52604 833.7656 91.36979Q831.75 89.21354 831.75 85.40104Q831.75 81.55729 833.78125 79.416664Q835.8125 77.260414 839.2969 77.260414Q842.125 77.260414 843.7969 78.479164Q845.4844 79.697914 846.21875 82.21354ZM853.75 71.697914L853.75 79.58854Q855.75 77.260414 858.5156 77.260414Q859.9375 77.260414 861.0781 77.791664Q862.21875 78.30729 862.7969 79.135414Q863.375 79.947914 863.5781 80.947914Q863.7969 81.947914 863.7969 84.041664L863.7969 93.166664L859.6875 93.166664L859.6875 84.947914Q859.6875 82.49479 859.4531 81.83854Q859.21875 81.18229 858.625 80.791664Q858.03125 80.40104 857.1406 80.40104Q856.1094 80.40104 855.2969 80.90104Q854.5 81.40104 854.125 82.416664Q853.75 83.416664 853.75 85.36979L853.75 93.166664L849.6406 93.166664L849.6406 71.697914L853.75 71.697914Z" fill-rule="nonzero"/><path fill="#000000" d="M468.21875 46.1L468.21875 24.631248L482.9375 24.631248L482.9375 28.256248L472.54688 28.256248L472.54688 33.334373L481.51562 33.334373L481.51562 36.975L472.54688 36.975L472.54688 46.1L468.21875 46.1ZM486.04688 46.1L486.04688 24.631248L490.39062 24.631248L490.39062 46.1L486.04688 46.1ZM494.17188 24.631248L502.09375 24.631248Q504.78125 24.631248 506.1875 25.037498Q508.0625 25.584373 509.40625 27.006248Q510.76562 28.428123 511.46875 30.490623Q512.1719 32.553123 512.1719 35.56875Q512.1719 38.225 511.51562 40.13125Q510.70312 42.475 509.21875 43.928123Q508.07812 45.0375 506.17188 45.646873Q504.73438 46.1 502.32812 46.1L494.17188 46.1L494.17188 24.631248ZM498.5 28.256248L498.5 42.475L501.73438 42.475Q503.5625 42.475 504.35938 42.271873Q505.42188 42.00625 506.10938 41.38125Q506.8125 40.75625 507.25 39.31875Q507.6875 37.865623 507.6875 35.38125Q507.6875 32.88125 507.25 31.553123Q506.8125 30.224998 506.01562 29.474998Q505.23438 28.724998 504.01562 28.459373Q503.10938 28.256248 500.45312 28.256248L498.5 28.256248ZM530.9844 52.4125L528.15625 52.4125Q525.90625 49.0375 524.7344 45.396873Q523.5625 41.740623 523.5625 38.31875Q523.5625 34.084373 525.0156 30.303123Q526.28125 27.021873 528.21875 24.256248L531.03125 24.256248Q529.0156 28.693748 528.2656 31.818748Q527.5156 34.928123 527.5156 38.4125Q527.5156 40.81875 527.9531 43.334373Q528.40625 45.85 529.1719 48.115623Q529.6875 49.615623 530.9844 52.4125ZM534.2344 46.334373L534.2344 45.225Q535.9844 46.084373 536.6719 46.521873Q537.375 46.959373 538.7656 48.084373L538.7656 26.490623L540.25 26.490623L540.25 48.084373Q541.8281 46.56875 544.78125 45.19375L544.78125 46.31875Q542.6719 48.209373 541.5781 49.56875Q540.4844 50.928123 539.7969 52.38125L539.125 52.38125Q538.5781 51.13125 537.46875 49.709373Q536.3594 48.2875 534.2344 46.334373ZM548.0156 52.4125Q549.2344 49.803123 549.71875 48.4125Q550.21875 47.021873 550.6406 45.209373Q551.0781 43.396873 551.28125 41.75625Q551.4844 40.115623 551.4844 38.4125Q551.4844 34.928123 550.7344 31.818748Q549.9844 28.693748 547.9844 24.256248L550.78125 24.256248Q552.9844 27.412498 554.2031 30.943748Q555.4375 34.475 555.4375 38.1Q555.4375 41.1625 554.46875 44.6625Q553.375 48.584373 550.8594 52.4125L548.0156 52.4125Z" fill-rule="nonzero"/></svg>